<?xml version="1.0" encoding="utf-8"?>
<!DOCTYPE svg PUBLIC "-//W3C//DTD SVG 1.1//EN" "http://www.w3.org/Graphics/SVG/1.1/DTD/svg11.dtd">
<svg version="1.1" id="Layer_1" xmlns="http://www.w3.org/2000/svg" xmlns:xlink="http://www.w3.org/1999/xlink" x="0px" y="0px"
	 width="97.5px" height="101.5px" viewBox="0 0 97.5 101.5" enable-background="new 0 0 97.5 101.5" xml:space="preserve">
<circle cx="46.822" cy="21.384" r="8.689"/>
<circle cx="87.73" cy="6.703" r="3.939"/>
<path d="M35.711,68.204v-30.77c0,0,0.855-5.983,11.111-5.983v36.752h-1.405v28.129c0,0-4.329,6.333-9.706,0V68.204z"/>
<path d="M57.934,68.204v-30.77c0,0-0.855-5.983-11.111-5.983v36.752h1.405v28.129c0,0,4.328,6.333,9.706,0V68.204z"/>
<path d="M56.369,43.537l21.5-21.5c0,0,2.795-7.246-4.991-4.993l-21.5,21.5L56.369,43.537z"/>
<line fill="none" stroke="#000000" stroke-miterlimit="10" x1="62.982" y1="31.452" x2="87.73" y2="6.703"/>
<circle cx="7.708" cy="70.785" r="3.939"/>
<path d="M39.069,33.952l-21.5,21.5c0,0-2.795,7.246,4.991,4.993l21.5-21.5L39.069,33.952z"/>
<line fill="none" stroke="#000000" stroke-miterlimit="10" x1="32.456" y1="46.037" x2="7.708" y2="70.785"/>
</svg>
