<?xml version="1.0" encoding="utf-8"?>
<!DOCTYPE svg PUBLIC "-//W3C//DTD SVG 1.1//EN" "http://www.w3.org/Graphics/SVG/1.1/DTD/svg11.dtd">
<svg version="1.1" id="Layer_1" xmlns="http://www.w3.org/2000/svg" xmlns:xlink="http://www.w3.org/1999/xlink" x="0px" y="0px"
	 width="1251.178px" height="1251.184px" viewBox="0 0 1251.178 1251.184" xml:space="preserve" fill="white">
<g>
	<g>
		<path d="M208.737,864.675c-2.69-4.726-5.414-9.449-7.948-14.3c-12.768,10.262-29.227,15.614-46.595,14.236
			c2.941,5.853,5.977,11.674,9.137,17.401C181.074,884.545,197.911,877.411,208.737,864.675z"/>
		<path d="M172.626,898.44c53.542,89.653,132.806,162.439,229.063,207.877c203.152,96.006,440.384,52.165,595.908-97.946
			c6.665,3.566,13.486,6.854,20.746,9.577c89.107,33.421,188.383-11.704,221.834-100.734
			c33.36-89.027-11.701-188.35-100.792-221.771c-89.028-33.451-188.32,11.61-221.741,100.731
			c-24.69,65.716-6.478,136.967,40.556,183.282c-141.507,131.897-353.797,169.512-535.982,83.395
			c-85.649-40.43-156.434-104.673-205.063-183.782C205.484,890.741,189.712,897.972,172.626,898.44z M942.459,856.696
			c0-75.229,61.209-136.438,136.437-136.438c75.229,0,136.438,61.209,136.438,136.438c0,75.226-61.209,136.435-136.438,136.435
			C1003.668,993.131,942.459,931.922,942.459,856.696z"/>
		<path d="M1078.896,973.919c64.637,0,117.223-52.605,117.223-117.223c0-64.651-52.603-117.224-117.223-117.224
			c-64.651,0-117.223,52.572-117.223,117.224C961.673,921.313,1014.261,973.919,1078.896,973.919z"/>
		<path d="M92.61,788.351c10.357,3.88,21.185,5.853,32.138,5.977c6.008,17.965,12.831,35.05,20.935,52.762
			c2.127,0.626,4.318,1.125,6.54,1.47c15.615,2.285,30.448-3.034,41.213-12.985c-8.95-18.559-15.928-34.83-22.062-53.041
			c19.589-10.734,35.455-28.041,43.591-49.724c8.886-23.722,8.011-49.538-2.473-72.664c-10.515-23.125-29.352-40.773-53.073-49.659
			c-10.733-4.039-21.936-6.071-33.327-6.071c-39.397,0-75.197,24.751-89.059,61.613C18.666,715.063,43.606,769.951,92.61,788.351z
			 M58.939,674.226c13.862-36.924,55.263-55.764,92.251-41.838c36.956,13.831,55.732,55.201,41.869,92.188
			c-13.862,36.957-55.262,55.765-92.22,41.902C63.883,752.553,45.108,711.214,58.939,674.226z"/>
	</g>
	<g>
		<path d="M341.231,669.907H316.62v-60.049h-27.085v60.049H264.94v-79.669h76.291V669.907z"/>
		<path d="M361.791,691.829v-79.655h20.73v8.495c2.849-3.566,5.556-5.882,7.839-7.197c3.317-1.86,6.884-2.643,10.781-2.643
			c7.729,0,13.706,2.893,17.931,8.964c4.224,5.805,6.336,13.269,6.336,21.875c0,9.698-2.363,16.93-6.946,21.936
			c-4.6,5.006-10.359,7.636-17.4,7.636c-3.442,0-6.57-0.61-9.387-1.861c-2.816-1.004-5.289-2.865-7.479-5.07v27.521H361.791z
			 M383.978,641.135c0,4.71,0.984,8.135,2.847,10.31c2.002,2.178,4.443,3.146,7.322,3.146c2.535,0,4.819-0.938,6.432-3.051
			c1.751-2.128,2.675-5.694,2.675-10.718c0-4.756-0.954-8.215-2.754-10.389c-1.783-2.158-3.974-3.379-6.634-3.379
			c-2.832,0-5.1,1.221-7.072,3.396C384.947,632.623,383.978,636.19,383.978,641.135z"/>
		<path d="M438.834,641.135c0-8.684,2.909-16.116,8.886-21.797c5.946-5.677,14.02-8.509,24.159-8.509
			c11.578,0,20.215,3.408,26.145,9.981c4.804,5.492,7.088,12.281,7.088,20.122c0,8.729-2.879,16.178-8.809,21.825
			c-5.805,5.663-14.066,8.481-24.394,8.481c-9.23,0-16.835-2.255-22.53-7.057C442.354,658.423,438.834,650.743,438.834,641.135z
			 M461.021,641.104c0,5.067,1.048,9.028,3.144,11.374c2.082,2.583,4.647,3.881,7.807,3.881c3.192,0,5.884-1.284,7.824-3.85
			c2.065-2.316,3.098-6.338,3.098-11.547c0-4.976-1.033-8.889-3.13-11.202c-1.94-2.332-4.6-3.616-7.557-3.616
			c-3.208,0-5.93,1.284-8.026,3.63C462.069,632.388,461.021,636.082,461.021,641.104z"/>
		<path d="M564.489,647.331l21.076,2.283c-1.252,4.57-3.098,8.278-5.82,11.344c-2.567,3.333-6.009,5.93-10.029,7.558
			c-4.146,1.911-9.404,2.724-15.756,2.724c-6.071,0-11.234-0.61-15.241-1.831c-4.13-1.001-7.634-2.942-10.53-5.336
			c-3.019-2.644-5.257-5.586-6.963-9.045c-1.689-3.488-2.488-8.165-2.488-13.831c0-5.836,1.033-10.764,3.098-14.816
			c1.456-2.862,3.521-5.289,6.056-7.776c2.535-2.235,5.225-3.833,7.854-5.067c4.411-1.895,9.857-2.707,16.71-2.707
			c9.325,0,16.584,1.83,21.529,5.006c4.944,3.426,8.417,8.354,10.326,14.786l-20.793,2.801c-0.674-2.347-1.815-4.305-3.553-5.603
			c-1.736-1.064-3.973-1.705-6.978-1.705c-3.599,0-6.508,1.331-8.856,3.771c-2.207,2.707-3.317,6.759-3.317,11.938
			c0,4.804,1.096,8.387,3.302,10.982c2.206,2.333,5.179,3.614,8.542,3.614c2.989,0,5.446-0.718,7.339-2.188
			C562.034,652.775,563.473,650.318,564.489,647.331z"/>
		<path d="M649.965,628.335h-16.083v41.572h-22.187v-41.572H595.61v-16.161h54.355V628.335z"/>
		<path d="M660.653,641.135c0-8.684,3.034-16.116,8.871-21.797c5.961-5.677,14.019-8.509,24.157-8.509
			c11.595,0,20.341,3.408,26.161,9.981c4.819,5.492,7.213,12.281,7.213,20.122c0,8.729-3.019,16.178-8.934,21.825
			c-5.82,5.663-13.941,8.481-24.408,8.481c-9.232,0-16.82-2.255-22.5-7.057C664.172,658.423,660.653,650.743,660.653,641.135z
			 M682.823,641.104c0,5.067,1.064,9.028,3.161,11.374c2.082,2.583,4.664,3.881,7.808,3.881c3.177,0,5.867-1.284,7.949-3.85
			c1.94-2.316,2.973-6.338,2.973-11.547c0-4.976-1.048-8.889-2.988-11.202c-2.097-2.332-4.726-3.616-7.698-3.616
			c-3.208,0-5.946,1.284-8.043,3.63C683.887,632.388,682.823,636.082,682.823,641.104z"/>
		<path d="M821.09,669.907h-24.611v-60.049h-27.084v60.049h-24.611v-79.669h76.307V669.907z"/>
		<path d="M838.818,641.135c0-8.684,3.051-16.116,9.013-21.797c5.819-5.677,13.877-8.509,24.016-8.509
			c11.595,0,20.356,3.408,26.161,9.981c4.819,5.492,7.229,12.281,7.229,20.122c0,8.729-3.036,16.178-8.826,21.825
			c-5.913,5.663-14.05,8.481-24.518,8.481c-9.247,0-16.82-2.255-22.514-7.057C842.338,658.423,838.818,650.743,838.818,641.135z
			 M861.005,641.104c0,5.067,1.048,9.028,3.144,11.374c2.097,2.583,4.789,3.881,7.809,3.881c3.301,0,5.866-1.284,7.948-3.85
			c2.081-2.316,3.113-6.338,3.113-11.547c0-4.976-1.032-8.889-3.129-11.202c-2.081-2.332-4.6-3.616-7.698-3.616
			c-3.192,0-5.914,1.284-8.043,3.63C862.053,632.388,861.005,636.082,861.005,641.104z"/>
		<path d="M985.909,669.907h-20.855v-28.32l-21.766,28.32h-21.091v-57.733h20.872v28.804l22.029-28.804h20.811V669.907z"/>
	</g>
	<g>
		<path d="M1042.44,386.507c2.689,4.74,5.396,9.463,7.932,14.301c12.767-10.266,29.228-15.615,46.596-14.223
			c-2.943-5.853-5.961-11.674-9.122-17.401C1070.087,366.635,1053.251,373.771,1042.44,386.507z"/>
		<path d="M1078.551,352.756c-53.541-89.654-132.806-162.439-229.062-207.878c-203.168-96.021-440.383-52.181-595.925,97.93
			c-6.65-3.55-13.486-6.853-20.731-9.573C143.711,199.813,44.451,244.952,11,333.981c-33.359,89.027,11.703,188.35,100.793,221.771
			c88.997,33.438,188.319-11.61,221.709-100.748c24.721-65.699,6.493-136.968-40.525-183.266
			c141.506-131.914,353.781-169.529,535.983-83.395c85.647,40.413,156.432,104.672,205.062,183.768
			C1045.694,360.438,1061.466,353.225,1078.551,352.756z M308.718,394.5c0,75.229-61.208,136.438-136.436,136.438
			c-75.229,0-136.438-61.208-136.438-136.438c0-75.226,61.208-136.435,136.438-136.435
			C247.51,258.065,308.718,319.274,308.718,394.5z"/>
		<path d="M172.282,277.277c-64.652,0-117.223,52.589-117.223,117.223c0,64.637,52.57,117.223,117.223,117.223
			c64.619,0,117.223-52.586,117.223-117.223C289.505,329.866,236.901,277.277,172.282,277.277z"/>
		<path d="M1158.551,462.828c-10.356-3.88-21.168-5.835-32.153-5.977c-5.978-17.961-12.797-35.049-20.901-52.744
			c-2.13-0.641-4.318-1.143-6.543-1.486c-15.615-2.285-30.462,3.051-41.212,12.985c8.95,18.574,15.929,34.847,22.061,53.044
			c-19.603,10.733-35.453,28.037-43.59,49.724c-8.902,23.735-8.026,49.535,2.473,72.66c10.499,23.143,29.353,40.776,53.071,49.663
			c10.72,4.035,21.938,6.071,33.312,6.071c39.412,0,75.213-24.737,89.058-61.601
			C1232.495,536.133,1207.572,481.245,1158.551,462.828z M1192.224,576.97c-13.864,36.91-55.248,55.748-92.253,41.839
			c-36.955-13.849-55.732-55.218-41.854-92.206c13.863-36.957,55.247-55.764,92.204-41.886
			C1187.295,498.626,1206.069,539.966,1192.224,576.97z"/>
	</g>
</g>
</svg>
