<?xml version="1.0" encoding="UTF-8" standalone="no"?>
<svg width="26px" height="9px" viewBox="0 0 26 9" version="1.1" xmlns="http://www.w3.org/2000/svg" xmlns:xlink="http://www.w3.org/1999/xlink" xmlns:sketch="http://www.bohemiancoding.com/sketch/ns">
    <g id="skill-level-basic" sketch:type="MSLayerGroup" stroke-width="1.5" stroke="#000000" fill="none">
        <g id="Group" sketch:type="MSShapeGroup">
            <path d="M21.714,8.072 C21.735,8.072 21.755,8.079 21.776,8.079 C23.692,8.079 25.244,6.353 25.244,4.225 L25.244,4.219 L25.244,4.213 C25.244,2.085 23.692,0.359 21.776,0.359 C21.755,0.359 21.734,0.365 21.714,0.366 C21.2,0.335 17.345,0.251 12.851,4.213 L12.837,4.213 C12.839,4.215 12.842,4.217 12.844,4.219 C12.842,4.221 12.84,4.223 12.837,4.225 L12.851,4.225 C17.345,8.187 21.201,8.103 21.714,8.072 L21.714,8.072 Z" id="Shape"></path>
            <path d="M3.959,0.366 C3.938,0.366 3.918,0.359 3.897,0.359 C1.981,0.359 0.429,2.085 0.429,4.213 L0.429,4.219 L0.429,4.225 C0.429,6.353 1.981,8.079 3.897,8.079 C3.918,8.079 3.939,8.073 3.959,8.072 C4.472,8.103 8.328,8.187 12.822,4.225 L12.836,4.225 C12.834,4.223 12.831,4.221 12.829,4.219 C12.831,4.217 12.833,4.215 12.836,4.213 L12.822,4.213 C8.329,0.251 4.473,0.335 3.959,0.366 L3.959,0.366 Z" id="Shape"></path>
        </g>
    </g>
</svg>