<?xml version="1.0" encoding="utf-8"?>
<!-- Generator: Adobe Illustrator 15.1.0, SVG Export Plug-In . SVG Version: 6.00 Build 0)  -->
<!DOCTYPE svg PUBLIC "-//W3C//DTD SVG 1.1//EN" "http://www.w3.org/Graphics/SVG/1.1/DTD/svg11.dtd">
<svg version="1.1" id="Layer_1" xmlns="http://www.w3.org/2000/svg" xmlns:xlink="http://www.w3.org/1999/xlink" x="0px" y="0px"
	 width="25.667px" height="25.75px" viewBox="0 0 25.667 25.75" enable-background="new 0 0 25.667 25.75" xml:space="preserve">
<g>
	<path fill="none" stroke="#000000" stroke-width="0.25" stroke-miterlimit="10" d="M21.714,16.739
		c0.021,0.001,0.041,0.007,0.062,0.007c1.916,0,3.468-1.726,3.468-3.854c0-0.002,0-0.004,0-0.006s0-0.004,0-0.006
		c0-2.129-1.552-3.854-3.468-3.854c-0.021,0-0.042,0.007-0.062,0.007c-0.513-0.031-4.369-0.115-8.863,3.848h-0.014
		c0.002,0.002,0.005,0.004,0.007,0.006c-0.002,0.002-0.004,0.004-0.007,0.006h0.014C17.345,16.854,21.201,16.77,21.714,16.739z"/>
	<path fill="none" stroke="#000000" stroke-width="0.25" stroke-miterlimit="10" d="M3.959,9.033c-0.021,0-0.041-0.007-0.062-0.007
		c-1.916,0-3.468,1.726-3.468,3.854c0,0.002,0,0.004,0,0.006s0,0.004,0,0.006c0,2.128,1.552,3.854,3.468,3.854
		c0.021,0,0.042-0.006,0.062-0.007c0.513,0.03,4.369,0.114,8.863-3.847h0.014c-0.002-0.002-0.005-0.004-0.007-0.006
		c0.002-0.002,0.004-0.004,0.007-0.006h-0.014C8.329,8.918,4.473,9.002,3.959,9.033z"/>
	<path fill="none" stroke="#000000" stroke-width="0.25" stroke-miterlimit="10" d="M8.984,21.764
		c-0.001,0.021-0.007,0.041-0.007,0.062c0,1.916,1.726,3.468,3.854,3.468c0.002,0,0.004-0.001,0.006-0.001s0.004,0.001,0.006,0.001
		c2.129,0,3.854-1.552,3.854-3.468c0-0.021-0.007-0.041-0.007-0.062c0.031-0.514,0.115-4.369-3.848-8.863v-0.014
		c-0.002,0.002-0.004,0.004-0.006,0.006c-0.002-0.002-0.004-0.004-0.006-0.006V12.9C8.87,17.395,8.954,21.25,8.984,21.764z"/>
	<path fill="none" stroke="#000000" stroke-width="0.25" stroke-miterlimit="10" d="M16.69,4.009c0-0.021,0.007-0.041,0.007-0.062
		c0-1.915-1.726-3.468-3.854-3.468c-0.002,0-0.004,0-0.006,0s-0.004,0-0.006,0c-2.128,0-3.854,1.553-3.854,3.468
		c0,0.021,0.006,0.042,0.007,0.062c-0.03,0.513-0.114,4.369,3.847,8.863v0.015c0.002-0.003,0.004-0.006,0.006-0.008
		c0.002,0.002,0.004,0.005,0.006,0.008v-0.015C16.805,8.378,16.721,4.521,16.69,4.009z"/>
</g>
<g>
	<path fill="none" stroke="#000000" stroke-width="0.25" stroke-miterlimit="10" d="M21.838,9.333
		c0.016-0.014,0.033-0.023,0.049-0.039c1.354-1.354,1.232-3.672-0.273-5.177c0-0.001-0.002-0.003-0.004-0.004
		s-0.002-0.003-0.004-0.005c-1.505-1.505-3.823-1.628-5.177-0.273c-0.015,0.016-0.024,0.034-0.04,0.05
		c-0.385,0.341-3.171,3.008-3.546,8.987l-0.01,0.011c0.003-0.001,0.006-0.001,0.009-0.001c0,0.003,0,0.006-0.001,0.009l0.01-0.01
		C18.83,12.504,21.497,9.718,21.838,9.333z"/>
	<path fill="none" stroke="#000000" stroke-width="0.25" stroke-miterlimit="10" d="M3.834,16.439
		c-0.015,0.015-0.034,0.023-0.049,0.039c-1.354,1.354-1.232,3.672,0.273,5.178c0.001,0.001,0.003,0.002,0.004,0.004
		c0.001,0.001,0.002,0.003,0.004,0.004c1.504,1.505,3.822,1.628,5.177,0.273c0.015-0.016,0.025-0.034,0.04-0.05
		c0.384-0.341,3.17-3.009,3.547-8.987l0.01-0.01c-0.003,0-0.006,0.001-0.009,0.001c0-0.003,0-0.006,0-0.009l-0.01,0.01
		C6.843,13.269,4.175,16.054,3.834,16.439z"/>
	<path fill="none" stroke="#000000" stroke-width="0.25" stroke-miterlimit="10" d="M16.389,21.888
		c0.015,0.017,0.024,0.034,0.04,0.05c1.354,1.354,3.672,1.231,5.177-0.273c0.001-0.001,0.002-0.003,0.003-0.005
		c0.001-0.001,0.003-0.002,0.005-0.003c1.506-1.506,1.629-3.823,0.273-5.178c-0.016-0.016-0.033-0.024-0.049-0.039
		c-0.342-0.386-3.008-3.171-8.988-3.547l-0.01-0.01c0,0.003,0,0.006,0,0.008c-0.002,0-0.005,0-0.008,0l0.009,0.01
		C13.219,18.879,16.004,21.546,16.389,21.888z"/>
	<path fill="none" stroke="#000000" stroke-width="0.25" stroke-miterlimit="10" d="M9.284,3.885
		c-0.015-0.015-0.024-0.034-0.04-0.05C7.89,2.481,5.572,2.604,4.066,4.108C4.065,4.11,4.064,4.111,4.062,4.113
		C4.061,4.114,4.06,4.116,4.059,4.117C2.554,5.622,2.432,7.939,3.786,9.294C3.801,9.31,3.819,9.319,3.834,9.333
		c0.341,0.385,3.009,3.171,8.987,3.548l0.011,0.01c-0.001-0.003-0.001-0.007-0.001-0.009c0.002,0,0.006,0,0.009,0.001l-0.01-0.011
		C12.455,6.893,9.668,4.225,9.284,3.885z"/>
</g>
<circle fill="none" stroke="#000000" stroke-width="0.25" stroke-miterlimit="10" cx="12.833" cy="12.883" r="12.509"/>
</svg>
