<?xml version="1.0" encoding="UTF-8" standalone="no"?>
<svg width="26px" height="26px" viewBox="0 0 26 26" version="1.1" xmlns="http://www.w3.org/2000/svg" xmlns:xlink="http://www.w3.org/1999/xlink" xmlns:sketch="http://www.bohemiancoding.com/sketch/ns">
    <g id="skill-level-master" sketch:type="MSLayerGroup" stroke="#000000" stroke-width="0.5" fill="none">
        <g id="Group" sketch:type="MSShapeGroup">
            <path d="M21.714,16.739 C21.735,16.74 21.755,16.746 21.776,16.746 C23.692,16.746 25.244,15.02 25.244,12.892 L25.244,12.886 L25.244,12.88 C25.244,10.751 23.692,9.026 21.776,9.026 C21.755,9.026 21.734,9.033 21.714,9.033 C21.201,9.002 17.345,8.918 12.851,12.881 L12.837,12.881 C12.839,12.883 12.842,12.885 12.844,12.887 C12.842,12.889 12.84,12.891 12.837,12.893 L12.851,12.893 C17.345,16.854 21.201,16.77 21.714,16.739 L21.714,16.739 Z" id="Shape"></path>
            <path d="M3.959,9.033 C3.938,9.033 3.918,9.026 3.897,9.026 C1.981,9.026 0.429,10.752 0.429,12.88 L0.429,12.886 L0.429,12.892 C0.429,15.02 1.981,16.746 3.897,16.746 C3.918,16.746 3.939,16.74 3.959,16.739 C4.472,16.769 8.328,16.853 12.822,12.892 L12.836,12.892 C12.834,12.89 12.831,12.888 12.829,12.886 C12.831,12.884 12.833,12.882 12.836,12.88 L12.822,12.88 C8.329,8.918 4.473,9.002 3.959,9.033 L3.959,9.033 Z" id="Shape"></path>
            <path d="M8.984,21.764 C8.983,21.785 8.977,21.805 8.977,21.826 C8.977,23.742 10.703,25.294 12.831,25.294 C12.833,25.294 12.835,25.293 12.837,25.293 C12.839,25.293 12.841,25.294 12.843,25.294 C14.972,25.294 16.697,23.742 16.697,21.826 C16.697,21.805 16.69,21.785 16.69,21.764 C16.721,21.25 16.805,17.395 12.842,12.901 L12.842,12.887 C12.84,12.889 12.838,12.891 12.836,12.893 L12.83,12.887 L12.83,12.9 C8.87,17.395 8.954,21.25 8.984,21.764 L8.984,21.764 Z" id="Shape"></path>
            <path d="M16.69,4.009 C16.69,3.988 16.697,3.968 16.697,3.947 C16.697,2.032 14.971,0.479 12.843,0.479 L12.837,0.479 L12.831,0.479 C10.703,0.479 8.977,2.032 8.977,3.947 C8.977,3.968 8.983,3.989 8.984,4.009 C8.954,4.522 8.87,8.378 12.831,12.872 L12.831,12.887 C12.833,12.884 12.835,12.881 12.837,12.879 C12.839,12.881 12.841,12.884 12.843,12.887 L12.843,12.872 C16.805,8.378 16.721,4.521 16.69,4.009 L16.69,4.009 Z" id="Shape"></path>
        </g>
        <g id="Group" transform="translate(2.000000, 2.000000)" sketch:type="MSShapeGroup">
            <path d="M19.838,7.333 C19.854,7.319 19.871,7.31 19.887,7.294 C21.241,5.94 21.119,3.622 19.614,2.117 C19.614,2.116 19.612,2.114 19.61,2.113 C19.608,2.112 19.608,2.11 19.606,2.108 C18.101,0.603 15.783,0.48 14.429,1.835 C14.414,1.851 14.405,1.869 14.389,1.885 C14.004,2.226 11.218,4.893 10.843,10.872 L10.833,10.883 C10.836,10.882 10.839,10.882 10.842,10.882 C10.842,10.885 10.842,10.888 10.841,10.891 L10.851,10.881 C16.83,10.504 19.497,7.718 19.838,7.333 L19.838,7.333 Z" id="Shape"></path>
            <path d="M1.834,14.439 C1.819,14.454 1.8,14.462 1.785,14.478 C0.431,15.832 0.553,18.15 2.058,19.656 C2.059,19.657 2.061,19.658 2.062,19.66 C2.063,19.661 2.064,19.663 2.066,19.664 C3.57,21.169 5.888,21.292 7.243,19.937 C7.258,19.921 7.268,19.903 7.283,19.887 C7.667,19.546 10.453,16.878 10.83,10.9 L10.84,10.89 C10.837,10.89 10.834,10.891 10.831,10.891 L10.831,10.882 L10.821,10.892 C4.843,11.269 2.175,14.054 1.834,14.439 L1.834,14.439 Z" id="Shape"></path>
            <path d="M14.389,19.888 C14.404,19.905 14.413,19.922 14.429,19.938 C15.783,21.292 18.101,21.169 19.606,19.665 C19.607,19.664 19.608,19.662 19.609,19.66 C19.61,19.659 19.612,19.658 19.614,19.657 C21.12,18.151 21.243,15.834 19.887,14.479 C19.871,14.463 19.854,14.455 19.838,14.44 C19.496,14.054 16.83,11.269 10.85,10.893 L10.84,10.883 L10.84,10.891 L10.832,10.891 L10.841,10.901 C11.219,16.879 14.004,19.546 14.389,19.888 L14.389,19.888 Z" id="Shape"></path>
            <path d="M7.284,1.885 C7.269,1.87 7.26,1.851 7.244,1.835 C5.89,0.481 3.572,0.604 2.066,2.108 C2.065,2.11 2.064,2.111 2.062,2.113 C2.061,2.114 2.06,2.116 2.059,2.117 C0.554,3.622 0.432,5.939 1.786,7.294 C1.801,7.31 1.819,7.319 1.834,7.333 C2.175,7.718 4.843,10.504 10.821,10.881 L10.832,10.891 C10.831,10.888 10.831,10.884 10.831,10.882 C10.833,10.882 10.837,10.882 10.84,10.883 L10.83,10.872 C10.455,4.893 7.668,2.225 7.284,1.885 L7.284,1.885 Z" id="Shape"></path>
        </g>
        <circle id="Oval" sketch:type="MSShapeGroup" cx="12.833" cy="12.883" r="12.509"></circle>
    </g>
</svg>