<?xml version="1.0" encoding="utf-8"?>
<!-- Generator: Adobe Illustrator 15.1.0, SVG Export Plug-In . SVG Version: 6.00 Build 0)  -->
<!DOCTYPE svg PUBLIC "-//W3C//DTD SVG 1.1//EN" "http://www.w3.org/Graphics/SVG/1.1/DTD/svg11.dtd">
<svg version="1.1" id="Layer_1" xmlns="http://www.w3.org/2000/svg" xmlns:xlink="http://www.w3.org/1999/xlink" x="0px" y="0px"
	 width="25.812px" height="9px" viewBox="-0.104 -57.312 25.812 9" enable-background="new -0.104 -57.312 25.812 9"
	 xml:space="preserve">
<g>
	<path fill="none" stroke="#000000" stroke-width="0.25" stroke-miterlimit="10" d="M21.714-48.928c0.021,0,0.041,0.007,0.062,0.007
		c1.916,0,3.468-1.726,3.468-3.854c0-0.002,0-0.004,0-0.006c0-0.002,0-0.004,0-0.006c0-2.128-1.552-3.854-3.468-3.854
		c-0.021,0-0.042,0.006-0.062,0.007c-0.514-0.031-4.369-0.115-8.863,3.847h-0.014c0.002,0.002,0.005,0.004,0.007,0.006
		c-0.002,0.002-0.004,0.004-0.007,0.006h0.014C17.345-48.813,21.201-48.897,21.714-48.928z"/>
	<path fill="none" stroke="#000000" stroke-width="0.25" stroke-miterlimit="10" d="M3.959-56.634c-0.021,0-0.041-0.007-0.062-0.007
		c-1.916,0-3.468,1.726-3.468,3.854c0,0.002,0,0.004,0,0.006c0,0.002,0,0.004,0,0.006c0,2.128,1.552,3.854,3.468,3.854
		c0.021,0,0.042-0.006,0.062-0.007c0.513,0.031,4.369,0.115,8.863-3.847h0.014c-0.002-0.002-0.005-0.004-0.007-0.006
		c0.002-0.002,0.004-0.004,0.007-0.006h-0.014C8.329-56.749,4.473-56.665,3.959-56.634z"/>
</g>
</svg>
