<?xml version="1.0" encoding="UTF-8" standalone="no"?>
<svg width="26px" height="26px" viewBox="0 0 26 26" version="1.1" xmlns="http://www.w3.org/2000/svg" xmlns:xlink="http://www.w3.org/1999/xlink" xmlns:sketch="http://www.bohemiancoding.com/sketch/ns">
    <g id="skill-level-advanced" sketch:type="MSLayerGroup" stroke-width="1" stroke="#000000" fill="none">
        <g id="Group" sketch:type="MSShapeGroup">
            <path d="M21.714,17.072 C21.735,17.073 21.755,17.079 21.776,17.079 C23.692,17.079 25.244,15.353 25.244,13.225 L25.244,13.219 L25.244,13.213 C25.244,11.084 23.692,9.359 21.776,9.359 C21.755,9.359 21.734,9.366 21.714,9.366 C21.2,9.335 17.345,9.251 12.851,13.214 L12.837,13.214 C12.839,13.216 12.842,13.218 12.844,13.22 C12.842,13.222 12.84,13.224 12.837,13.226 L12.851,13.226 C17.345,17.187 21.201,17.103 21.714,17.072 L21.714,17.072 Z" id="Shape"></path>
            <path d="M3.959,9.366 C3.938,9.366 3.918,9.359 3.897,9.359 C1.981,9.359 0.429,11.085 0.429,13.213 L0.429,13.219 L0.429,13.225 C0.429,15.353 1.981,17.079 3.897,17.079 C3.918,17.079 3.939,17.073 3.959,17.072 C4.472,17.102 8.328,17.186 12.822,13.225 L12.836,13.225 C12.834,13.223 12.831,13.221 12.829,13.219 C12.831,13.217 12.833,13.215 12.836,13.213 L12.822,13.213 C8.329,9.251 4.473,9.335 3.959,9.366 L3.959,9.366 Z" id="Shape"></path>
            <path d="M8.984,22.097 C8.983,22.118 8.977,22.138 8.977,22.159 C8.977,24.075 10.703,25.627 12.831,25.627 C12.833,25.627 12.835,25.626 12.837,25.626 C12.839,25.626 12.841,25.627 12.843,25.627 C14.972,25.627 16.697,24.075 16.697,22.159 C16.697,22.138 16.69,22.118 16.69,22.097 C16.721,21.583 16.805,17.728 12.842,13.234 L12.842,13.22 C12.84,13.222 12.838,13.224 12.836,13.226 C12.834,13.224 12.832,13.222 12.83,13.22 L12.83,13.234 C8.87,17.728 8.954,21.583 8.984,22.097 L8.984,22.097 Z" id="Shape"></path>
            <path d="M16.69,4.342 C16.69,4.321 16.697,4.301 16.697,4.28 C16.697,2.365 14.971,0.812 12.843,0.812 L12.837,0.812 L12.831,0.812 C10.703,0.812 8.977,2.365 8.977,4.28 C8.977,4.301 8.983,4.322 8.984,4.342 C8.954,4.855 8.87,8.711 12.831,13.205 L12.831,13.22 C12.833,13.217 12.835,13.214 12.837,13.212 C12.839,13.214 12.841,13.217 12.843,13.22 L12.843,13.205 C16.805,8.711 16.721,4.854 16.69,4.342 L16.69,4.342 Z" id="Shape"></path>
        </g>
    </g>
</svg>