<?xml version="1.0" encoding="utf-8"?>
<!-- Generator: Adobe Illustrator 15.1.0, SVG Export Plug-In . SVG Version: 6.00 Build 0)  -->
<!DOCTYPE svg PUBLIC "-//W3C//DTD SVG 1.1//EN" "http://www.w3.org/Graphics/SVG/1.1/DTD/svg11.dtd">
<svg version="1.1" id="Layer_1" xmlns="http://www.w3.org/2000/svg" xmlns:xlink="http://www.w3.org/1999/xlink" x="0px" y="0px"
	 width="25.917px" height="26.167px" viewBox="-0.167 -32.875 25.917 26.167" enable-background="new -0.167 -32.875 25.917 26.167"
	 xml:space="preserve">
<g>
	<path fill="none" stroke="#000000" stroke-width="0.25" stroke-miterlimit="10" d="M21.714-15.928
		c0.021,0.001,0.041,0.007,0.062,0.007c1.916,0,3.468-1.726,3.468-3.854c0-0.002,0-0.004,0-0.006c0-0.002,0-0.004,0-0.006
		c0-2.129-1.552-3.854-3.468-3.854c-0.021,0-0.042,0.007-0.062,0.007c-0.514-0.031-4.369-0.115-8.863,3.848h-0.014
		c0.002,0.002,0.005,0.004,0.007,0.006c-0.002,0.002-0.004,0.004-0.007,0.006h0.014C17.345-15.813,21.201-15.897,21.714-15.928z"/>
	<path fill="none" stroke="#000000" stroke-width="0.25" stroke-miterlimit="10" d="M3.959-23.634c-0.021,0-0.041-0.007-0.062-0.007
		c-1.916,0-3.468,1.726-3.468,3.854c0,0.002,0,0.004,0,0.006c0,0.002,0,0.004,0,0.006c0,2.128,1.552,3.854,3.468,3.854
		c0.021,0,0.042-0.006,0.062-0.007c0.513,0.03,4.369,0.114,8.863-3.847h0.014c-0.002-0.002-0.005-0.004-0.007-0.006
		c0.002-0.002,0.004-0.004,0.007-0.006h-0.014C8.329-23.749,4.473-23.665,3.959-23.634z"/>
	<path fill="none" stroke="#000000" stroke-width="0.25" stroke-miterlimit="10" d="M8.984-10.903
		c-0.001,0.021-0.007,0.041-0.007,0.062c0,1.916,1.726,3.468,3.854,3.468c0.002,0,0.004-0.001,0.006-0.001s0.004,0.001,0.006,0.001
		c2.129,0,3.854-1.552,3.854-3.468c0-0.021-0.007-0.041-0.007-0.062c0.031-0.514,0.115-4.369-3.848-8.863v-0.014
		c-0.002,0.002-0.004,0.004-0.006,0.006c-0.002-0.002-0.004-0.004-0.006-0.006v0.014C8.87-15.272,8.954-11.417,8.984-10.903z"/>
	<path fill="none" stroke="#000000" stroke-width="0.25" stroke-miterlimit="10" d="M16.69-28.658c0-0.021,0.007-0.041,0.007-0.062
		c0-1.915-1.726-3.468-3.854-3.468c-0.002,0-0.004,0-0.006,0s-0.004,0-0.006,0c-2.128,0-3.854,1.553-3.854,3.468
		c0,0.021,0.006,0.042,0.007,0.062c-0.03,0.513-0.114,4.369,3.847,8.863v0.015c0.002-0.003,0.004-0.006,0.006-0.008
		c0.002,0.002,0.004,0.005,0.006,0.008v-0.015C16.805-24.289,16.721-28.146,16.69-28.658z"/>
</g>
</svg>
